<?xml version="1.0" standalone="no"?><!DOCTYPE svg PUBLIC "-//W3C//DTD SVG 1.1//EN" "http://www.w3.org/Graphics/SVG/1.1/DTD/svg11.dtd"><svg t="1663053468912" class="icon" viewBox="0 0 1024 1024" version="1.1" xmlns="http://www.w3.org/2000/svg" p-id="660" xmlns:xlink="http://www.w3.org/1999/xlink" width="200" height="200"><path d="M549.03125 172.73c0-19.828125-16.7896875-35.9025-37.5-35.9025-20.503125 0-37.1634375 15.75375-37.4953125 35.3090625l-0.0046875 0.5934375V818.1125c0 19.828125 16.7896875 35.9034375 37.5 35.9034375 20.503125 0 37.1634375-15.7546875 37.4953125-35.31l0.0046875-0.5934375V172.73z" fill="#888888" p-id="661"></path><path d="M821.0046875 590.54375c14.6446875-14.645625 14.6446875-38.3896875 0-53.034375-14.4984375-14.4975-37.914375-14.6428125-52.5909375-0.4340625l-0.4415625 0.435-283.726875 283.7259375c-14.6446875 14.6446875-14.6446875 38.38875 0 53.0334375 14.4984375 14.4984375 37.914375 14.64375 52.5909375 0.435l0.4415625-0.435 283.726875-283.726875z" fill="#888888" p-id="662"></path><path d="M254.345 538.64c-14.64375-14.6446875-38.3878125-14.6446875-53.0325 0-14.4984375 14.4975-14.64375 37.914375-0.435 52.5909375l0.435 0.4415625 283.3425 283.3425c14.64375 14.64375 38.3878125 14.64375 53.0325 0 14.4984375-14.4984375 14.64375-37.914375 0.435-52.5909375l-0.435-0.4425-283.3425-283.3415625z" fill="#888888" p-id="663"></path></svg>