<?xml version="1.0" standalone="no"?><!DOCTYPE svg PUBLIC "-//W3C//DTD SVG 1.1//EN" "http://www.w3.org/Graphics/SVG/1.1/DTD/svg11.dtd"><svg t="1663054870551" class="icon" viewBox="0 0 1024 1024" version="1.1" xmlns="http://www.w3.org/2000/svg" p-id="740" xmlns:xlink="http://www.w3.org/1999/xlink" width="200" height="200"><path d="M710.4 838.4 358.4 492.8c-12.8-12.8-32-12.8-44.8 0l0 0c-12.8 12.8-12.8 32 0 44.8l352 352c12.8 12.8 32 12.8 44.8 0l0 0C723.2 876.8 723.2 851.2 710.4 838.4z" p-id="741" fill="#ffffff"></path><path d="M358.4 531.2l352-352c12.8-12.8 12.8-32 0-44.8l0 0c-12.8-12.8-32-12.8-44.8 0L313.6 486.4c-12.8 12.8-12.8 32 0 44.8l0 0C326.4 544 345.6 544 358.4 531.2z" p-id="742" fill="#ffffff"></path></svg>